<svg width="30" height="26" viewBox="0 0 30 26" fill="none" xmlns="http://www.w3.org/2000/svg">
<g clip-path="url(#clip0_1_3)">
<path d="M29.5655 12.9244L23.0585 11.7206L22.3139 13.0099L20.4813 16.1828L15.7231 24.4212C15.5147 24.7819 14.9653 24.6335 14.9653 24.2166V17.2928V16.5412C14.9653 16.1509 14.6901 15.8153 14.3087 15.7404L6.89538 14.2841L0.259293 13.0708C0.269371 13.4155 0.350786 13.7586 0.505816 14.0761L5.98276 23.5803C6.74691 24.9063 8.15775 25.7221 9.68349 25.7201L20.1868 25.7061C21.7118 25.7041 23.1198 24.8854 23.8808 23.5585L29.2409 14.2113C29.4694 13.8138 29.5768 13.3679 29.5655 12.9244Z" fill="url(#paint0_linear_1_3)"/>
<path d="M7.64197 12.9885L9.47736 9.80344L14.2073 1.59529C14.4154 1.2342 14.9653 1.38242 14.9653 1.79963V9.47096C14.9653 9.86168 15.2411 10.1976 15.6231 10.272L23.0585 11.7207L29.5655 12.9245C29.5572 12.5987 29.4841 12.2747 29.3464 11.9717C29.314 11.9004 29.2792 11.8299 29.2397 11.7613L23.8728 2.42387C23.1102 1.09724 21.7007 0.279938 20.1753 0.279938H9.63609C8.10822 0.279938 6.69683 1.09981 5.93521 2.42979L0.58357 11.7749C0.571248 11.7963 0.560556 11.8184 0.548935 11.8401C0.343478 12.2237 0.24692 12.6483 0.259294 13.0708L6.89539 14.2841L7.64197 12.9885Z" fill="url(#paint1_linear_1_3)"/>
</g>
<defs>
<linearGradient id="paint0_linear_1_3" x1="28.9534" y1="18.645" x2="0.786272" y2="18.9059" gradientUnits="userSpaceOnUse">
<stop stop-color="#3585A3"/>
<stop offset="1" stop-color="#00DEAE"/>
</linearGradient>
<linearGradient id="paint1_linear_1_3" x1="1.67767" y1="7.45445" x2="26.7007" y2="6.80208" gradientUnits="userSpaceOnUse">
<stop stop-color="#3585A3"/>
<stop offset="1" stop-color="#00DEAE"/>
</linearGradient>
<clipPath id="clip0_1_3">
<rect width="30" height="26" fill="white"/>
</clipPath>
</defs>
</svg>
